<svg xmlns="http://www.w3.org/2000/svg" xmlns:xlink="http://www.w3.org/1999/xlink" width="500" zoomAndPan="magnify" viewBox="0 0 375 374.999991" height="500" preserveAspectRatio="xMidYMid meet" version="1.0"><defs><g/></defs><rect x="-37.5" width="450" fill="#ffffff" y="-37.499999" height="449.999989" fill-opacity="1"/><rect x="-37.5" width="450" fill="#e4e2dd" y="-37.499999" height="449.999989" fill-opacity="1"/><g fill="#000000" fill-opacity="1"><g transform="translate(107.27233, 199.675084)"><g><path d="M 1.984375 6.75 L 9.75 2.953125 C 11.175781 5.304688 13.65625 6.484375 17.1875 6.484375 C 18.832031 6.484375 20.359375 5.957031 21.765625 4.90625 C 23.179688 3.851562 23.890625 2.234375 23.890625 0.046875 L 23.890625 -1.984375 C 22.210938 -0.128906 19.210938 0.796875 14.890625 0.796875 C 10.921875 0.796875 7.648438 -0.601562 5.078125 -3.40625 C 2.515625 -6.207031 1.234375 -9.640625 1.234375 -13.703125 C 1.234375 -17.773438 2.515625 -21.222656 5.078125 -24.046875 C 7.648438 -26.867188 10.921875 -28.28125 14.890625 -28.28125 C 18.421875 -28.28125 21.367188 -27.191406 23.734375 -25.015625 L 23.890625 -25.015625 L 23.890625 -27.484375 L 33.375 -27.484375 L 33.375 0.75 C 33.375 5.207031 31.890625 8.648438 28.921875 11.078125 C 25.960938 13.515625 22.050781 14.734375 17.1875 14.734375 C 9.332031 14.734375 4.265625 12.070312 1.984375 6.75 Z M 13.140625 -18.359375 C 11.910156 -17.148438 11.296875 -15.597656 11.296875 -13.703125 C 11.296875 -11.816406 11.882812 -10.273438 13.0625 -9.078125 C 14.25 -7.878906 15.804688 -7.28125 17.734375 -7.28125 C 19.585938 -7.28125 21.113281 -7.882812 22.3125 -9.09375 C 23.507812 -10.3125 24.109375 -11.851562 24.109375 -13.71875 C 24.109375 -15.601562 23.488281 -17.148438 22.25 -18.359375 C 21.019531 -19.578125 19.515625 -20.1875 17.734375 -20.1875 C 15.910156 -20.1875 14.378906 -19.578125 13.140625 -18.359375 Z M 13.140625 -18.359375 "/></g></g></g><g fill="#000000" fill-opacity="1"><g transform="translate(139.296075, 199.675084)"><g><path d="M 5.078125 -3.40625 C 2.515625 -6.207031 1.234375 -9.640625 1.234375 -13.703125 C 1.234375 -17.773438 2.515625 -21.222656 5.078125 -24.046875 C 7.648438 -26.867188 10.921875 -28.28125 14.890625 -28.28125 C 18.535156 -28.28125 21.535156 -27.140625 23.890625 -24.859375 L 23.890625 -27.484375 L 33.375 -27.484375 L 33.375 0 L 24 0 L 24 -3.109375 L 23.890625 -3.109375 C 21.535156 -0.503906 18.535156 0.796875 14.890625 0.796875 C 10.921875 0.796875 7.648438 -0.601562 5.078125 -3.40625 Z M 13.140625 -18.359375 C 11.910156 -17.148438 11.296875 -15.597656 11.296875 -13.703125 C 11.296875 -11.816406 11.882812 -10.273438 13.0625 -9.078125 C 14.25 -7.878906 15.804688 -7.28125 17.734375 -7.28125 C 19.585938 -7.28125 21.113281 -7.882812 22.3125 -9.09375 C 23.507812 -10.3125 24.109375 -11.851562 24.109375 -13.71875 C 24.109375 -15.601562 23.488281 -17.148438 22.25 -18.359375 C 21.019531 -19.578125 19.515625 -20.1875 17.734375 -20.1875 C 15.910156 -20.1875 14.378906 -19.578125 13.140625 -18.359375 Z M 13.140625 -18.359375 "/></g></g></g><g fill="#000000" fill-opacity="1"><g transform="translate(171.31982, 199.675084)"><g><path d="M 31.484375 -24.046875 C 34.054688 -21.222656 35.34375 -17.773438 35.34375 -13.703125 C 35.34375 -9.640625 34.054688 -6.207031 31.484375 -3.40625 C 28.921875 -0.601562 25.65625 0.796875 21.6875 0.796875 C 18.050781 0.796875 15.050781 -0.503906 12.6875 -3.109375 L 12.59375 -3.109375 L 12.59375 0 L 3.21875 0 L 3.21875 -46.0625 L 12.6875 -46.0625 L 12.6875 -24.859375 C 15.050781 -27.140625 18.050781 -28.28125 21.6875 -28.28125 C 25.65625 -28.28125 28.921875 -26.867188 31.484375 -24.046875 Z M 23.515625 -9.078125 C 24.691406 -10.273438 25.28125 -11.816406 25.28125 -13.703125 C 25.28125 -15.597656 24.660156 -17.148438 23.421875 -18.359375 C 22.191406 -19.578125 20.671875 -20.1875 18.859375 -20.1875 C 17.066406 -20.1875 15.554688 -19.578125 14.328125 -18.359375 C 13.097656 -17.148438 12.484375 -15.601562 12.484375 -13.71875 C 12.484375 -11.851562 13.078125 -10.3125 14.265625 -9.09375 C 15.460938 -7.882812 16.992188 -7.28125 18.859375 -7.28125 C 20.785156 -7.28125 22.335938 -7.878906 23.515625 -9.078125 Z M 23.515625 -9.078125 "/></g></g></g><g fill="#000000" fill-opacity="1"><g transform="translate(203.343565, 199.675084)"><g><path d="M 4.125 -42.796875 C 5.226562 -43.898438 6.546875 -44.453125 8.078125 -44.453125 C 9.617188 -44.453125 10.941406 -43.898438 12.046875 -42.796875 C 13.160156 -41.691406 13.71875 -40.367188 13.71875 -38.828125 C 13.71875 -37.296875 13.160156 -35.972656 12.046875 -34.859375 C 10.941406 -33.753906 9.617188 -33.203125 8.078125 -33.203125 C 6.546875 -33.203125 5.226562 -33.753906 4.125 -34.859375 C 3.019531 -35.972656 2.46875 -37.296875 2.46875 -38.828125 C 2.46875 -40.367188 3.019531 -41.691406 4.125 -42.796875 Z M 3.21875 -27.484375 L 3.21875 0 L 12.6875 0 L 12.6875 -27.484375 Z M 3.21875 -27.484375 "/></g></g></g><g fill="#000000" fill-opacity="1"><g transform="translate(214.963381, 199.675084)"><g><path d="M 3.21875 0 L 3.21875 -27.484375 L 12.6875 -27.484375 L 12.6875 -24.578125 L 12.796875 -24.578125 C 15.265625 -27.046875 17.890625 -28.28125 20.671875 -28.28125 C 22.671875 -28.28125 24.546875 -27.867188 26.296875 -27.046875 C 28.046875 -26.222656 29.367188 -24.957031 30.265625 -23.25 C 33.046875 -26.601562 36.082031 -28.28125 39.375 -28.28125 C 42.300781 -28.28125 44.816406 -27.457031 46.921875 -25.8125 C 49.023438 -24.175781 50.078125 -21.609375 50.078125 -18.109375 L 50.078125 0 L 40.59375 0 L 40.59375 -15.53125 C 40.59375 -17 40.191406 -18.222656 39.390625 -19.203125 C 38.585938 -20.179688 37.382812 -20.671875 35.78125 -20.671875 C 34.382812 -20.671875 33.320312 -20.25 32.59375 -19.40625 C 31.863281 -18.570312 31.460938 -17.566406 31.390625 -16.390625 L 31.390625 0 L 21.90625 0 L 21.90625 -15.53125 C 21.90625 -17 21.503906 -18.222656 20.703125 -19.203125 C 19.898438 -20.179688 18.695312 -20.671875 17.09375 -20.671875 C 15.625 -20.671875 14.519531 -20.210938 13.78125 -19.296875 C 13.050781 -18.390625 12.6875 -17.3125 12.6875 -16.0625 L 12.6875 0 Z M 3.21875 0 "/></g></g></g><path stroke-linecap="butt" transform="matrix(0.75, 0, 0, 0.75, 90.574247, 228.073139)" fill="none" stroke-linejoin="miter" d="M -0.0000370697 5.001439 L 84.43226 5.001439 " stroke="#292929" stroke-width="10" stroke-opacity="1" stroke-miterlimit="4"/><path stroke-linecap="butt" transform="matrix(0, 0.75, -0.75, 0, 98.070394, 171.479446)" fill="none" stroke-linejoin="miter" d="M 0.00136321 5.000109 L 82.46491 5.000109 " stroke="#292929" stroke-width="10" stroke-opacity="1" stroke-miterlimit="4"/><path stroke-linecap="butt" transform="matrix(-0.75, 0, 0, -0.75, 283.487477, 146.919146)" fill="none" stroke-linejoin="miter" d="M -0.00107222 5.00157 L 84.431225 5.00157 " stroke="#292929" stroke-width="10" stroke-opacity="1" stroke-miterlimit="4"/><path stroke-linecap="butt" transform="matrix(0, -0.75, 0.75, 0, 275.991344, 203.512837)" fill="none" stroke-linejoin="miter" d="M 0.00149105 5.001125 L 82.465038 5.001125 " stroke="#292929" stroke-width="10" stroke-opacity="1" stroke-miterlimit="4"/></svg>